name C:\Users\u0101727\Documents\MyRepositories\paper-ad\predictivesimulations_2d/Results/PredSim_2D/IK_c6.mot
datacolumns 11
datarows 51
range 0.63318220 1.11286568
endheader
time	pelvis_tilt	pelvis_tx	pelvis_ty	hip_flexion_l	hip_flexion_r	knee_angle_l	knee_angle_r	ankle_angle_l	ankle_angle_r	lumbar_extension	
          0.63318220	        -15.03856969	          0.85495847	          0.89991764	         25.67983170	         11.35817917	        -10.65148884	        -40.88749182	          8.49558074	         -0.30547789	         10.28673689	
          0.64277587	        -15.05566614	          0.86693061	          0.90135538	         24.76089864	         12.63121132	        -10.40417458	        -41.78402585	          8.59853111	          0.67061844	         10.24835894	
          0.65236954	        -15.07028508	          0.87884689	          0.90254947	         23.82667946	         13.93667707	        -10.13199749	        -42.57263836	          8.74233685	          1.72667559	         10.20599591	
          0.66196321	        -15.08241196	          0.89071494	          0.90350318	         22.88162006	         15.26958317	         -9.84278709	        -43.24517117	          8.92113277	          2.84502412	         10.15996670	
          0.67155688	        -15.09217008	          0.90254204	          0.90422709	         21.92962346	         16.62395815	         -9.54360750	        -43.79409101	          9.12844844	          4.00784905	         10.11074710	
          0.68115055	        -15.09972136	          0.91433448	          0.90473812	         20.97484616	         17.99396670	         -9.24199627	        -44.21173223	          9.35660814	          5.19730209	         10.05876637	
          0.69074422	        -15.10520552	          0.92609779	          0.90505699	         20.02185863	         19.37410943	         -8.94581833	        -44.49031780	          9.59754102	          6.39556384	         10.00436595	
          0.70033789	        -15.10876897	          0.93783797	          0.90520510	         19.07546339	         20.75791906	         -8.66343616	        -44.62287333	          9.84329590	          7.58483969	          9.94792440	
          0.70993156	        -15.11063063	          0.94956209	          0.90520267	         18.13892673	         22.13845330	         -8.40053469	        -44.60377529	         10.08652172	          8.74745267	          9.88997521	
          0.71952523	        -15.11110639	          0.96127847	          0.90506782	         17.21306825	         23.50883225	         -8.15841135	        -44.42895424	         10.32055719	          9.86603187	          9.83125821	
          0.72911890	        -15.11047870	          0.97299593	          0.90481604	         16.29928073	         24.86115895	         -7.93983198	        -44.09645415	         10.53860444	         10.92383691	          9.77251139	
          0.73871257	        -15.10899065	          0.98472269	          0.90446048	         15.39971621	         26.18745124	         -7.74844140	        -43.60533949	         10.73456664	         11.90542401	          9.71435604	
          0.74830624	        -15.10688346	          0.99646777	          0.90401184	         14.51596159	         27.47896092	         -7.58725543	        -42.95857259	         10.90378834	         12.79740000	          9.65752111	
          0.75789990	        -15.10441467	          1.00823967	          0.90347928	         13.64894437	         28.72762869	         -7.45832390	        -42.16074350	         11.04328773	         13.58953243	          9.60270469	
          0.76749357	        -15.10184754	          1.02004502	          0.90287091	         12.79952440	         29.92727393	         -7.36271077	        -41.21619191	         11.15191525	         14.27573944	          9.55039257	
          0.77708724	        -15.09942083	          1.03189012	          0.90219329	         11.96841254	         31.07217716	         -7.30209689	        -40.13165171	         11.23037605	         14.85442202	          9.50102802	
          0.78668091	        -15.09735581	          1.04377934	          0.90145182	         11.15592896	         32.15940301	         -7.27738653	        -38.91260535	         11.28147749	         15.32840884	          9.45479943	
          0.79627458	        -15.09586424	          1.05571627	          0.90065034	         10.36196088	         33.18759600	         -7.28897176	        -37.56403288	         11.30967643	         15.70398003	          9.41177267	
          0.80586825	        -15.09516481	          1.06770426	          0.89979082	          9.58625720	         34.15615038	         -7.33686640	        -36.09131385	         11.32029565	         15.98950366	          9.37192757	
          0.81546192	        -15.09553918	          1.07974785	          0.89887345	          8.82820968	         35.06358043	         -7.42051021	        -34.50196158	         11.31861105	         16.19412473	          9.33533770	
          0.82505559	        -15.09737799	          1.09185348	          0.89789709	          8.08677176	         35.90641876	         -7.53884650	        -32.80372117	         11.30824239	         16.32696358	          9.30231082	
          0.83464926	        -15.10100519	          1.10402928	          0.89686059	          7.36159250	         36.68007022	         -7.69215487	        -31.00803068	         11.29001959	         16.39680344	          9.27323398	
          0.84424293	        -15.10649153	          1.11628724	          0.89576661	          6.65356562	         37.37781287	         -7.88409255	        -29.14109195	         11.26233388	         16.41178904	          9.24869708	
          0.85383660	        -15.11386696	          1.12864557	          0.89462752	          5.96471788	         37.98668450	         -8.12088564	        -27.23714233	         11.21915356	         16.37920818	          9.23000289	
          0.86343027	        -15.12315527	          1.14112576	          0.89346501	          5.29820167	         38.49089365	         -8.40964803	        -25.32838399	         11.14807521	         16.30545678	          9.21887263	
          0.87302394	        -15.13403854	          1.15374659	          0.89230160	          4.65842118	         38.88102266	         -8.75884320	        -23.44264262	         11.03282382	         16.19592512	          9.21649253	
          0.88261761	        -15.14571928	          1.16652263	          0.89115527	          4.05063536	         39.15695343	         -9.17832040	        -21.60178976	         10.85687466	         16.05473903	          9.22326684	
          0.89221128	        -15.15698379	          1.17946674	          0.89004032	          3.48013606	         39.32557261	         -9.67841226	        -19.82743238	         10.60594758	         15.88449716	          9.23912314	
          0.90180495	        -15.16661202	          1.19259278	          0.88896891	          2.95181154	         39.39409776	        -10.26880382	        -18.13434869	         10.26718765	         15.68639124	          9.26415302	
          0.91139862	        -15.17346031	          1.20591522	          0.88795023	          2.47009453	         39.36935677	        -10.95806189	        -16.53432291	          9.82844407	         15.46031501	          9.29859441	
          0.92099229	        -15.17627361	          1.21944824	          0.88698954	          2.03959936	         39.25895044	        -11.75518178	        -15.04440324	          9.27886622	         15.20498904	          9.34258482	
          0.93058596	        -15.17378904	          1.23320625	          0.88608792	          1.66584400	         39.06791998	        -12.67044871	        -13.67912720	          8.60747735	         14.91839892	          9.39641609	
          0.94017963	        -15.16460260	          1.24720283	          0.88524107	          1.35473450	         38.80103855	        -13.71478545	        -12.45835466	          7.80383871	         14.59766336	          9.46034107	
          0.94977330	        -15.14715641	          1.26144974	          0.88443783	          1.11193356	         38.46367020	        -14.89840924	        -11.41088677	          6.86044809	         14.23898548	          9.53450916	
          0.95936697	        -15.12000860	          1.27595807	          0.88365911	          0.94223485	         38.05615245	        -16.23061230	        -10.56760832	          5.77730857	         13.83800677	          9.61950872	
          0.96896064	        -15.08196704	          1.29073608	          0.88287338	          0.84855181	         37.57143269	        -17.72435693	         -9.96217840	          4.57677105	         13.38974051	          9.71640109	
          0.97855431	        -15.03287623	          1.30577753	          0.88203682	          0.83361165	         36.99151834	        -19.38559734	         -9.64275534	          3.27239094	         12.88938354	          9.82633188	
          0.98814798	        -14.97529263	          1.32106536	          0.88117278	          0.90465274	         36.24834388	        -21.21120584	         -9.72988423	          1.84413126	         12.33487141	          9.95327367	
          0.99774165	        -14.91742783	          1.33641370	          0.88040818	          1.06631031	         35.38506859	        -23.18259648	        -10.04389323	          0.37735778	         11.76553121	         10.08779952	
          1.00733532	        -14.87025625	          1.35148188	          0.87997244	          1.34543699	         34.52688377	        -25.20735906	        -10.32386344	         -0.90633258	         11.21529417	         10.20666630	
          1.01692899	        -14.84234053	          1.36602278	          0.88012716	          1.77029022	         33.71103335	        -27.14528485	        -10.58192079	         -1.90891438	         10.68404400	         10.29595722	
          1.02652266	        -14.83602547	          1.37997340	          0.88102806	          2.33678260	         32.93997489	        -28.93372523	        -10.81293429	         -2.65976613	         10.18644068	         10.35453117	
          1.03611633	        -14.84662303	          1.39341698	          0.88263442	          3.02814275	         32.19518067	        -30.59338748	        -11.00490757	         -3.16832115	          9.73877098	         10.38853094	
          1.04571000	        -14.86754159	          1.40647774	          0.88473651	          3.82382899	         31.45553659	        -32.15338369	        -11.14892281	         -3.44732352	          9.35252724	         10.40498484	
          1.05530367	        -14.89341529	          1.41926315	          0.88710181	          4.70828131	         30.70424068	        -33.63130565	        -11.23817459	         -3.51233699	          9.03399178	         10.40920755	
          1.06489733	        -14.92080479	          1.43184747	          0.88954763	          5.66946895	         29.93184607	        -35.03562232	        -11.27074659	         -3.37838683	          8.78477965	         10.40439539	
          1.07449100	        -14.94781672	          1.44427768	          0.89195037	          6.69838138	         29.13382756	        -36.36765285	        -11.24707844	         -3.06178230	          8.60385899	         10.39230703	
          1.08408467	        -14.97348915	          1.45658385	          0.89423081	          7.78761580	         28.30863787	        -37.62428778	        -11.16917371	         -2.57926833	          8.48859915	         10.37395137	
          1.09367834	        -14.99733318	          1.46878627	          0.89633855	          8.93099282	         27.45665043	        -38.80064669	        -11.04051328	         -1.94770679	          8.43526253	         10.34994354	
          1.10327201	        -15.01908348	          1.48090002	          0.89824115	         10.12296650	         26.57951682	        -39.89063690	        -10.86593976	         -1.18405020	          8.43930102	         10.32073605	
          1.11286568	        -15.03856969	          1.49293751	          0.89991764	         11.35817917	         25.67983170	        -40.88749182	        -10.65148884	         -0.30547789	          8.49558074	         10.28673689	
